%TF.GenerationSoftware,KiCad,Pcbnew,(6.0.1)*%
%TF.CreationDate,2022-02-07T11:42:41+00:00*%
%TF.ProjectId,24p_fpc_keyboard,3234705f-6670-4635-9f6b-6579626f6172,rev?*%
%TF.SameCoordinates,Original*%
%TF.FileFunction,Legend,Top*%
%TF.FilePolarity,Positive*%
%FSLAX46Y46*%
G04 Gerber Fmt 4.6, Leading zero omitted, Abs format (unit mm)*
G04 Created by KiCad (PCBNEW (6.0.1)) date 2022-02-07 11:42:41*
%MOMM*%
%LPD*%
G01*
G04 APERTURE LIST*
%TA.AperFunction,Profile*%
%ADD10C,0.200000*%
%TD*%
%ADD11C,0.150000*%
%ADD12C,0.300000*%
%ADD13C,0.250000*%
%ADD14C,0.120000*%
G04 APERTURE END LIST*
D10*
X175260000Y-48260000D02*
X106680000Y-48260000D01*
X106680000Y-48260000D02*
X106680000Y-93980000D01*
X106680000Y-93980000D02*
X175260000Y-93980000D01*
X175260000Y-93980000D02*
X175260000Y-48260000D01*
D11*
X116292380Y-59253333D02*
X117292380Y-58920000D01*
X116292380Y-58586666D01*
X117292380Y-58253333D02*
X116292380Y-58253333D01*
X116292380Y-57872380D01*
X116340000Y-57777142D01*
X116387619Y-57729523D01*
X116482857Y-57681904D01*
X116625714Y-57681904D01*
X116720952Y-57729523D01*
X116768571Y-57777142D01*
X116816190Y-57872380D01*
X116816190Y-58253333D01*
X164600000Y-59181904D02*
X164552380Y-59277142D01*
X164552380Y-59420000D01*
X164600000Y-59562857D01*
X164695238Y-59658095D01*
X164790476Y-59705714D01*
X164980952Y-59753333D01*
X165123809Y-59753333D01*
X165314285Y-59705714D01*
X165409523Y-59658095D01*
X165504761Y-59562857D01*
X165552380Y-59420000D01*
X165552380Y-59324761D01*
X165504761Y-59181904D01*
X165457142Y-59134285D01*
X165123809Y-59134285D01*
X165123809Y-59324761D01*
X165552380Y-58705714D02*
X164552380Y-58705714D01*
X165552380Y-58134285D01*
X164552380Y-58134285D01*
X165552380Y-57658095D02*
X164552380Y-57658095D01*
X164552380Y-57420000D01*
X164600000Y-57277142D01*
X164695238Y-57181904D01*
X164790476Y-57134285D01*
X164980952Y-57086666D01*
X165123809Y-57086666D01*
X165314285Y-57134285D01*
X165409523Y-57181904D01*
X165504761Y-57277142D01*
X165552380Y-57420000D01*
X165552380Y-57658095D01*
D12*
X156658571Y-85065714D02*
X156658571Y-84208571D01*
X158158571Y-84637142D02*
X156658571Y-84637142D01*
X157372857Y-83708571D02*
X157372857Y-83208571D01*
X158158571Y-82994285D02*
X158158571Y-83708571D01*
X156658571Y-83708571D01*
X156658571Y-82994285D01*
X158301428Y-82708571D02*
X158301428Y-81565714D01*
X158015714Y-80351428D02*
X158087142Y-80422857D01*
X158158571Y-80637142D01*
X158158571Y-80780000D01*
X158087142Y-80994285D01*
X157944285Y-81137142D01*
X157801428Y-81208571D01*
X157515714Y-81280000D01*
X157301428Y-81280000D01*
X157015714Y-81208571D01*
X156872857Y-81137142D01*
X156730000Y-80994285D01*
X156658571Y-80780000D01*
X156658571Y-80637142D01*
X156730000Y-80422857D01*
X156801428Y-80351428D01*
X158158571Y-79494285D02*
X158087142Y-79637142D01*
X158015714Y-79708571D01*
X157872857Y-79780000D01*
X157444285Y-79780000D01*
X157301428Y-79708571D01*
X157230000Y-79637142D01*
X157158571Y-79494285D01*
X157158571Y-79280000D01*
X157230000Y-79137142D01*
X157301428Y-79065714D01*
X157444285Y-78994285D01*
X157872857Y-78994285D01*
X158015714Y-79065714D01*
X158087142Y-79137142D01*
X158158571Y-79280000D01*
X158158571Y-79494285D01*
X157158571Y-78351428D02*
X158158571Y-78351428D01*
X157301428Y-78351428D02*
X157230000Y-78280000D01*
X157158571Y-78137142D01*
X157158571Y-77922857D01*
X157230000Y-77780000D01*
X157372857Y-77708571D01*
X158158571Y-77708571D01*
X115821428Y-50478571D02*
X115821428Y-51692857D01*
X115750000Y-51835714D01*
X115678571Y-51907142D01*
X115535714Y-51978571D01*
X115321428Y-51978571D01*
X115178571Y-51907142D01*
X115821428Y-51407142D02*
X115678571Y-51478571D01*
X115392857Y-51478571D01*
X115250000Y-51407142D01*
X115178571Y-51335714D01*
X115107142Y-51192857D01*
X115107142Y-50764285D01*
X115178571Y-50621428D01*
X115250000Y-50550000D01*
X115392857Y-50478571D01*
X115678571Y-50478571D01*
X115821428Y-50550000D01*
X116535714Y-51478571D02*
X116535714Y-50478571D01*
X116535714Y-49978571D02*
X116464285Y-50050000D01*
X116535714Y-50121428D01*
X116607142Y-50050000D01*
X116535714Y-49978571D01*
X116535714Y-50121428D01*
X117035714Y-50478571D02*
X117607142Y-50478571D01*
X117250000Y-49978571D02*
X117250000Y-51264285D01*
X117321428Y-51407142D01*
X117464285Y-51478571D01*
X117607142Y-51478571D01*
X118107142Y-51478571D02*
X118107142Y-49978571D01*
X118750000Y-51478571D02*
X118750000Y-50692857D01*
X118678571Y-50550000D01*
X118535714Y-50478571D01*
X118321428Y-50478571D01*
X118178571Y-50550000D01*
X118107142Y-50621428D01*
X120107142Y-50478571D02*
X120107142Y-51478571D01*
X119464285Y-50478571D02*
X119464285Y-51264285D01*
X119535714Y-51407142D01*
X119678571Y-51478571D01*
X119892857Y-51478571D01*
X120035714Y-51407142D01*
X120107142Y-51335714D01*
X120821428Y-51478571D02*
X120821428Y-49978571D01*
X120821428Y-50550000D02*
X120964285Y-50478571D01*
X121250000Y-50478571D01*
X121392857Y-50550000D01*
X121464285Y-50621428D01*
X121535714Y-50764285D01*
X121535714Y-51192857D01*
X121464285Y-51335714D01*
X121392857Y-51407142D01*
X121250000Y-51478571D01*
X120964285Y-51478571D01*
X120821428Y-51407142D01*
X122178571Y-51335714D02*
X122250000Y-51407142D01*
X122178571Y-51478571D01*
X122107142Y-51407142D01*
X122178571Y-51335714D01*
X122178571Y-51478571D01*
X123535714Y-51407142D02*
X123392857Y-51478571D01*
X123107142Y-51478571D01*
X122964285Y-51407142D01*
X122892857Y-51335714D01*
X122821428Y-51192857D01*
X122821428Y-50764285D01*
X122892857Y-50621428D01*
X122964285Y-50550000D01*
X123107142Y-50478571D01*
X123392857Y-50478571D01*
X123535714Y-50550000D01*
X124392857Y-51478571D02*
X124250000Y-51407142D01*
X124178571Y-51335714D01*
X124107142Y-51192857D01*
X124107142Y-50764285D01*
X124178571Y-50621428D01*
X124250000Y-50550000D01*
X124392857Y-50478571D01*
X124607142Y-50478571D01*
X124750000Y-50550000D01*
X124821428Y-50621428D01*
X124892857Y-50764285D01*
X124892857Y-51192857D01*
X124821428Y-51335714D01*
X124750000Y-51407142D01*
X124607142Y-51478571D01*
X124392857Y-51478571D01*
X125535714Y-51478571D02*
X125535714Y-50478571D01*
X125535714Y-50621428D02*
X125607142Y-50550000D01*
X125750000Y-50478571D01*
X125964285Y-50478571D01*
X126107142Y-50550000D01*
X126178571Y-50692857D01*
X126178571Y-51478571D01*
X126178571Y-50692857D02*
X126250000Y-50550000D01*
X126392857Y-50478571D01*
X126607142Y-50478571D01*
X126750000Y-50550000D01*
X126821428Y-50692857D01*
X126821428Y-51478571D01*
X128607142Y-49907142D02*
X127321428Y-51835714D01*
X129750000Y-51478571D02*
X129750000Y-49978571D01*
X129750000Y-51407142D02*
X129607142Y-51478571D01*
X129321428Y-51478571D01*
X129178571Y-51407142D01*
X129107142Y-51335714D01*
X129035714Y-51192857D01*
X129035714Y-50764285D01*
X129107142Y-50621428D01*
X129178571Y-50550000D01*
X129321428Y-50478571D01*
X129607142Y-50478571D01*
X129750000Y-50550000D01*
X131107142Y-51478571D02*
X131107142Y-50692857D01*
X131035714Y-50550000D01*
X130892857Y-50478571D01*
X130607142Y-50478571D01*
X130464285Y-50550000D01*
X131107142Y-51407142D02*
X130964285Y-51478571D01*
X130607142Y-51478571D01*
X130464285Y-51407142D01*
X130392857Y-51264285D01*
X130392857Y-51121428D01*
X130464285Y-50978571D01*
X130607142Y-50907142D01*
X130964285Y-50907142D01*
X131107142Y-50835714D01*
X131750000Y-51407142D02*
X131892857Y-51478571D01*
X132178571Y-51478571D01*
X132321428Y-51407142D01*
X132392857Y-51264285D01*
X132392857Y-51192857D01*
X132321428Y-51050000D01*
X132178571Y-50978571D01*
X131964285Y-50978571D01*
X131821428Y-50907142D01*
X131750000Y-50764285D01*
X131750000Y-50692857D01*
X131821428Y-50550000D01*
X131964285Y-50478571D01*
X132178571Y-50478571D01*
X132321428Y-50550000D01*
X133035714Y-50907142D02*
X134178571Y-50907142D01*
X135535714Y-51478571D02*
X135535714Y-49978571D01*
X135535714Y-51407142D02*
X135392857Y-51478571D01*
X135107142Y-51478571D01*
X134964285Y-51407142D01*
X134892857Y-51335714D01*
X134821428Y-51192857D01*
X134821428Y-50764285D01*
X134892857Y-50621428D01*
X134964285Y-50550000D01*
X135107142Y-50478571D01*
X135392857Y-50478571D01*
X135535714Y-50550000D01*
X136250000Y-51478571D02*
X136250000Y-50478571D01*
X136250000Y-49978571D02*
X136178571Y-50050000D01*
X136250000Y-50121428D01*
X136321428Y-50050000D01*
X136250000Y-49978571D01*
X136250000Y-50121428D01*
X137607142Y-51478571D02*
X137607142Y-50692857D01*
X137535714Y-50550000D01*
X137392857Y-50478571D01*
X137107142Y-50478571D01*
X136964285Y-50550000D01*
X137607142Y-51407142D02*
X137464285Y-51478571D01*
X137107142Y-51478571D01*
X136964285Y-51407142D01*
X136892857Y-51264285D01*
X136892857Y-51121428D01*
X136964285Y-50978571D01*
X137107142Y-50907142D01*
X137464285Y-50907142D01*
X137607142Y-50835714D01*
X138250000Y-51407142D02*
X138392857Y-51478571D01*
X138678571Y-51478571D01*
X138821428Y-51407142D01*
X138892857Y-51264285D01*
X138892857Y-51192857D01*
X138821428Y-51050000D01*
X138678571Y-50978571D01*
X138464285Y-50978571D01*
X138321428Y-50907142D01*
X138250000Y-50764285D01*
X138250000Y-50692857D01*
X138321428Y-50550000D01*
X138464285Y-50478571D01*
X138678571Y-50478571D01*
X138821428Y-50550000D01*
D13*
X119922857Y-59158095D02*
X118722857Y-59158095D01*
X118722857Y-58777142D01*
X118780000Y-58681904D01*
X118837142Y-58634285D01*
X118951428Y-58586666D01*
X119122857Y-58586666D01*
X119237142Y-58634285D01*
X119294285Y-58681904D01*
X119351428Y-58777142D01*
X119351428Y-59158095D01*
X119922857Y-57634285D02*
X119922857Y-58205714D01*
X119922857Y-57920000D02*
X118722857Y-57920000D01*
X118894285Y-58015238D01*
X119008571Y-58110476D01*
X119065714Y-58205714D01*
D12*
X131704285Y-89578571D02*
X130847142Y-89578571D01*
X131275714Y-89578571D02*
X131275714Y-88078571D01*
X131132857Y-88292857D01*
X130990000Y-88435714D01*
X130847142Y-88507142D01*
X132204285Y-89578571D02*
X132990000Y-88578571D01*
X132204285Y-88578571D02*
X132990000Y-89578571D01*
X133490000Y-88221428D02*
X133561428Y-88150000D01*
X133704285Y-88078571D01*
X134061428Y-88078571D01*
X134204285Y-88150000D01*
X134275714Y-88221428D01*
X134347142Y-88364285D01*
X134347142Y-88507142D01*
X134275714Y-88721428D01*
X133418571Y-89578571D01*
X134347142Y-89578571D01*
X135632857Y-88578571D02*
X135632857Y-89578571D01*
X135275714Y-88007142D02*
X134918571Y-89078571D01*
X135847142Y-89078571D01*
X136061428Y-89721428D02*
X137204285Y-89721428D01*
X138061428Y-88792857D02*
X137561428Y-88792857D01*
X137561428Y-89578571D02*
X137561428Y-88078571D01*
X138275714Y-88078571D01*
X138847142Y-89578571D02*
X138847142Y-88078571D01*
X139418571Y-88078571D01*
X139561428Y-88150000D01*
X139632857Y-88221428D01*
X139704285Y-88364285D01*
X139704285Y-88578571D01*
X139632857Y-88721428D01*
X139561428Y-88792857D01*
X139418571Y-88864285D01*
X138847142Y-88864285D01*
X141204285Y-89435714D02*
X141132857Y-89507142D01*
X140918571Y-89578571D01*
X140775714Y-89578571D01*
X140561428Y-89507142D01*
X140418571Y-89364285D01*
X140347142Y-89221428D01*
X140275714Y-88935714D01*
X140275714Y-88721428D01*
X140347142Y-88435714D01*
X140418571Y-88292857D01*
X140561428Y-88150000D01*
X140775714Y-88078571D01*
X140918571Y-88078571D01*
X141132857Y-88150000D01*
X141204285Y-88221428D01*
X141490000Y-89721428D02*
X142632857Y-89721428D01*
X143847142Y-89435714D02*
X143775714Y-89507142D01*
X143561428Y-89578571D01*
X143418571Y-89578571D01*
X143204285Y-89507142D01*
X143061428Y-89364285D01*
X142990000Y-89221428D01*
X142918571Y-88935714D01*
X142918571Y-88721428D01*
X142990000Y-88435714D01*
X143061428Y-88292857D01*
X143204285Y-88150000D01*
X143418571Y-88078571D01*
X143561428Y-88078571D01*
X143775714Y-88150000D01*
X143847142Y-88221428D01*
X144704285Y-89578571D02*
X144561428Y-89507142D01*
X144490000Y-89435714D01*
X144418571Y-89292857D01*
X144418571Y-88864285D01*
X144490000Y-88721428D01*
X144561428Y-88650000D01*
X144704285Y-88578571D01*
X144918571Y-88578571D01*
X145061428Y-88650000D01*
X145132857Y-88721428D01*
X145204285Y-88864285D01*
X145204285Y-89292857D01*
X145132857Y-89435714D01*
X145061428Y-89507142D01*
X144918571Y-89578571D01*
X144704285Y-89578571D01*
X145847142Y-88578571D02*
X145847142Y-89578571D01*
X145847142Y-88721428D02*
X145918571Y-88650000D01*
X146061428Y-88578571D01*
X146275714Y-88578571D01*
X146418571Y-88650000D01*
X146490000Y-88792857D01*
X146490000Y-89578571D01*
X147204285Y-88578571D02*
X147204285Y-89578571D01*
X147204285Y-88721428D02*
X147275714Y-88650000D01*
X147418571Y-88578571D01*
X147632857Y-88578571D01*
X147775714Y-88650000D01*
X147847142Y-88792857D01*
X147847142Y-89578571D01*
X149132857Y-89507142D02*
X148990000Y-89578571D01*
X148704285Y-89578571D01*
X148561428Y-89507142D01*
X148490000Y-89364285D01*
X148490000Y-88792857D01*
X148561428Y-88650000D01*
X148704285Y-88578571D01*
X148990000Y-88578571D01*
X149132857Y-88650000D01*
X149204285Y-88792857D01*
X149204285Y-88935714D01*
X148490000Y-89078571D01*
X150490000Y-89507142D02*
X150347142Y-89578571D01*
X150061428Y-89578571D01*
X149918571Y-89507142D01*
X149847142Y-89435714D01*
X149775714Y-89292857D01*
X149775714Y-88864285D01*
X149847142Y-88721428D01*
X149918571Y-88650000D01*
X150061428Y-88578571D01*
X150347142Y-88578571D01*
X150490000Y-88650000D01*
X150918571Y-88578571D02*
X151490000Y-88578571D01*
X151132857Y-88078571D02*
X151132857Y-89364285D01*
X151204285Y-89507142D01*
X151347142Y-89578571D01*
X151490000Y-89578571D01*
X152204285Y-89578571D02*
X152061428Y-89507142D01*
X151990000Y-89435714D01*
X151918571Y-89292857D01*
X151918571Y-88864285D01*
X151990000Y-88721428D01*
X152061428Y-88650000D01*
X152204285Y-88578571D01*
X152418571Y-88578571D01*
X152561428Y-88650000D01*
X152632857Y-88721428D01*
X152704285Y-88864285D01*
X152704285Y-89292857D01*
X152632857Y-89435714D01*
X152561428Y-89507142D01*
X152418571Y-89578571D01*
X152204285Y-89578571D01*
X153347142Y-89578571D02*
X153347142Y-88578571D01*
X153347142Y-88864285D02*
X153418571Y-88721428D01*
X153490000Y-88650000D01*
X153632857Y-88578571D01*
X153775714Y-88578571D01*
D13*
X122496857Y-59158095D02*
X121296857Y-59158095D01*
X121296857Y-58777142D01*
X121354000Y-58681904D01*
X121411142Y-58634285D01*
X121525428Y-58586666D01*
X121696857Y-58586666D01*
X121811142Y-58634285D01*
X121868285Y-58681904D01*
X121925428Y-58777142D01*
X121925428Y-59158095D01*
X121411142Y-58205714D02*
X121354000Y-58158095D01*
X121296857Y-58062857D01*
X121296857Y-57824761D01*
X121354000Y-57729523D01*
X121411142Y-57681904D01*
X121525428Y-57634285D01*
X121639714Y-57634285D01*
X121811142Y-57681904D01*
X122496857Y-58253333D01*
X122496857Y-57634285D01*
X124428857Y-59158095D02*
X123228857Y-59158095D01*
X123228857Y-58777142D01*
X123286000Y-58681904D01*
X123343142Y-58634285D01*
X123457428Y-58586666D01*
X123628857Y-58586666D01*
X123743142Y-58634285D01*
X123800285Y-58681904D01*
X123857428Y-58777142D01*
X123857428Y-59158095D01*
X123228857Y-58253333D02*
X123228857Y-57634285D01*
X123686000Y-57967619D01*
X123686000Y-57824761D01*
X123743142Y-57729523D01*
X123800285Y-57681904D01*
X123914571Y-57634285D01*
X124200285Y-57634285D01*
X124314571Y-57681904D01*
X124371714Y-57729523D01*
X124428857Y-57824761D01*
X124428857Y-58110476D01*
X124371714Y-58205714D01*
X124314571Y-58253333D01*
X126360857Y-59158095D02*
X125160857Y-59158095D01*
X125160857Y-58777142D01*
X125218000Y-58681904D01*
X125275142Y-58634285D01*
X125389428Y-58586666D01*
X125560857Y-58586666D01*
X125675142Y-58634285D01*
X125732285Y-58681904D01*
X125789428Y-58777142D01*
X125789428Y-59158095D01*
X125560857Y-57729523D02*
X126360857Y-57729523D01*
X125103714Y-57967619D02*
X125960857Y-58205714D01*
X125960857Y-57586666D01*
X128292857Y-59158095D02*
X127092857Y-59158095D01*
X127092857Y-58777142D01*
X127150000Y-58681904D01*
X127207142Y-58634285D01*
X127321428Y-58586666D01*
X127492857Y-58586666D01*
X127607142Y-58634285D01*
X127664285Y-58681904D01*
X127721428Y-58777142D01*
X127721428Y-59158095D01*
X127092857Y-57681904D02*
X127092857Y-58158095D01*
X127664285Y-58205714D01*
X127607142Y-58158095D01*
X127550000Y-58062857D01*
X127550000Y-57824761D01*
X127607142Y-57729523D01*
X127664285Y-57681904D01*
X127778571Y-57634285D01*
X128064285Y-57634285D01*
X128178571Y-57681904D01*
X128235714Y-57729523D01*
X128292857Y-57824761D01*
X128292857Y-58062857D01*
X128235714Y-58158095D01*
X128178571Y-58205714D01*
X130224857Y-59158095D02*
X129024857Y-59158095D01*
X129024857Y-58777142D01*
X129082000Y-58681904D01*
X129139142Y-58634285D01*
X129253428Y-58586666D01*
X129424857Y-58586666D01*
X129539142Y-58634285D01*
X129596285Y-58681904D01*
X129653428Y-58777142D01*
X129653428Y-59158095D01*
X129024857Y-57729523D02*
X129024857Y-57920000D01*
X129082000Y-58015238D01*
X129139142Y-58062857D01*
X129310571Y-58158095D01*
X129539142Y-58205714D01*
X129996285Y-58205714D01*
X130110571Y-58158095D01*
X130167714Y-58110476D01*
X130224857Y-58015238D01*
X130224857Y-57824761D01*
X130167714Y-57729523D01*
X130110571Y-57681904D01*
X129996285Y-57634285D01*
X129710571Y-57634285D01*
X129596285Y-57681904D01*
X129539142Y-57729523D01*
X129482000Y-57824761D01*
X129482000Y-58015238D01*
X129539142Y-58110476D01*
X129596285Y-58158095D01*
X129710571Y-58205714D01*
X132156857Y-59158095D02*
X130956857Y-59158095D01*
X130956857Y-58777142D01*
X131014000Y-58681904D01*
X131071142Y-58634285D01*
X131185428Y-58586666D01*
X131356857Y-58586666D01*
X131471142Y-58634285D01*
X131528285Y-58681904D01*
X131585428Y-58777142D01*
X131585428Y-59158095D01*
X130956857Y-58253333D02*
X130956857Y-57586666D01*
X132156857Y-58015238D01*
X134088857Y-59158095D02*
X132888857Y-59158095D01*
X132888857Y-58777142D01*
X132946000Y-58681904D01*
X133003142Y-58634285D01*
X133117428Y-58586666D01*
X133288857Y-58586666D01*
X133403142Y-58634285D01*
X133460285Y-58681904D01*
X133517428Y-58777142D01*
X133517428Y-59158095D01*
X133403142Y-58015238D02*
X133346000Y-58110476D01*
X133288857Y-58158095D01*
X133174571Y-58205714D01*
X133117428Y-58205714D01*
X133003142Y-58158095D01*
X132946000Y-58110476D01*
X132888857Y-58015238D01*
X132888857Y-57824761D01*
X132946000Y-57729523D01*
X133003142Y-57681904D01*
X133117428Y-57634285D01*
X133174571Y-57634285D01*
X133288857Y-57681904D01*
X133346000Y-57729523D01*
X133403142Y-57824761D01*
X133403142Y-58015238D01*
X133460285Y-58110476D01*
X133517428Y-58158095D01*
X133631714Y-58205714D01*
X133860285Y-58205714D01*
X133974571Y-58158095D01*
X134031714Y-58110476D01*
X134088857Y-58015238D01*
X134088857Y-57824761D01*
X134031714Y-57729523D01*
X133974571Y-57681904D01*
X133860285Y-57634285D01*
X133631714Y-57634285D01*
X133517428Y-57681904D01*
X133460285Y-57729523D01*
X133403142Y-57824761D01*
X136020857Y-59158095D02*
X134820857Y-59158095D01*
X134820857Y-58777142D01*
X134878000Y-58681904D01*
X134935142Y-58634285D01*
X135049428Y-58586666D01*
X135220857Y-58586666D01*
X135335142Y-58634285D01*
X135392285Y-58681904D01*
X135449428Y-58777142D01*
X135449428Y-59158095D01*
X136020857Y-58110476D02*
X136020857Y-57920000D01*
X135963714Y-57824761D01*
X135906571Y-57777142D01*
X135735142Y-57681904D01*
X135506571Y-57634285D01*
X135049428Y-57634285D01*
X134935142Y-57681904D01*
X134878000Y-57729523D01*
X134820857Y-57824761D01*
X134820857Y-58015238D01*
X134878000Y-58110476D01*
X134935142Y-58158095D01*
X135049428Y-58205714D01*
X135335142Y-58205714D01*
X135449428Y-58158095D01*
X135506571Y-58110476D01*
X135563714Y-58015238D01*
X135563714Y-57824761D01*
X135506571Y-57729523D01*
X135449428Y-57681904D01*
X135335142Y-57634285D01*
X137952857Y-59634285D02*
X136752857Y-59634285D01*
X136752857Y-59253333D01*
X136810000Y-59158095D01*
X136867142Y-59110476D01*
X136981428Y-59062857D01*
X137152857Y-59062857D01*
X137267142Y-59110476D01*
X137324285Y-59158095D01*
X137381428Y-59253333D01*
X137381428Y-59634285D01*
X137952857Y-58110476D02*
X137952857Y-58681904D01*
X137952857Y-58396190D02*
X136752857Y-58396190D01*
X136924285Y-58491428D01*
X137038571Y-58586666D01*
X137095714Y-58681904D01*
X136752857Y-57491428D02*
X136752857Y-57396190D01*
X136810000Y-57300952D01*
X136867142Y-57253333D01*
X136981428Y-57205714D01*
X137210000Y-57158095D01*
X137495714Y-57158095D01*
X137724285Y-57205714D01*
X137838571Y-57253333D01*
X137895714Y-57300952D01*
X137952857Y-57396190D01*
X137952857Y-57491428D01*
X137895714Y-57586666D01*
X137838571Y-57634285D01*
X137724285Y-57681904D01*
X137495714Y-57729523D01*
X137210000Y-57729523D01*
X136981428Y-57681904D01*
X136867142Y-57634285D01*
X136810000Y-57586666D01*
X136752857Y-57491428D01*
X139884857Y-59634285D02*
X138684857Y-59634285D01*
X138684857Y-59253333D01*
X138742000Y-59158095D01*
X138799142Y-59110476D01*
X138913428Y-59062857D01*
X139084857Y-59062857D01*
X139199142Y-59110476D01*
X139256285Y-59158095D01*
X139313428Y-59253333D01*
X139313428Y-59634285D01*
X139884857Y-58110476D02*
X139884857Y-58681904D01*
X139884857Y-58396190D02*
X138684857Y-58396190D01*
X138856285Y-58491428D01*
X138970571Y-58586666D01*
X139027714Y-58681904D01*
X139884857Y-57158095D02*
X139884857Y-57729523D01*
X139884857Y-57443809D02*
X138684857Y-57443809D01*
X138856285Y-57539047D01*
X138970571Y-57634285D01*
X139027714Y-57729523D01*
X141816857Y-59634285D02*
X140616857Y-59634285D01*
X140616857Y-59253333D01*
X140674000Y-59158095D01*
X140731142Y-59110476D01*
X140845428Y-59062857D01*
X141016857Y-59062857D01*
X141131142Y-59110476D01*
X141188285Y-59158095D01*
X141245428Y-59253333D01*
X141245428Y-59634285D01*
X141816857Y-58110476D02*
X141816857Y-58681904D01*
X141816857Y-58396190D02*
X140616857Y-58396190D01*
X140788285Y-58491428D01*
X140902571Y-58586666D01*
X140959714Y-58681904D01*
X140731142Y-57729523D02*
X140674000Y-57681904D01*
X140616857Y-57586666D01*
X140616857Y-57348571D01*
X140674000Y-57253333D01*
X140731142Y-57205714D01*
X140845428Y-57158095D01*
X140959714Y-57158095D01*
X141131142Y-57205714D01*
X141816857Y-57777142D01*
X141816857Y-57158095D01*
X143748857Y-59634285D02*
X142548857Y-59634285D01*
X142548857Y-59253333D01*
X142606000Y-59158095D01*
X142663142Y-59110476D01*
X142777428Y-59062857D01*
X142948857Y-59062857D01*
X143063142Y-59110476D01*
X143120285Y-59158095D01*
X143177428Y-59253333D01*
X143177428Y-59634285D01*
X143748857Y-58110476D02*
X143748857Y-58681904D01*
X143748857Y-58396190D02*
X142548857Y-58396190D01*
X142720285Y-58491428D01*
X142834571Y-58586666D01*
X142891714Y-58681904D01*
X142548857Y-57777142D02*
X142548857Y-57158095D01*
X143006000Y-57491428D01*
X143006000Y-57348571D01*
X143063142Y-57253333D01*
X143120285Y-57205714D01*
X143234571Y-57158095D01*
X143520285Y-57158095D01*
X143634571Y-57205714D01*
X143691714Y-57253333D01*
X143748857Y-57348571D01*
X143748857Y-57634285D01*
X143691714Y-57729523D01*
X143634571Y-57777142D01*
X145680857Y-59634285D02*
X144480857Y-59634285D01*
X144480857Y-59253333D01*
X144538000Y-59158095D01*
X144595142Y-59110476D01*
X144709428Y-59062857D01*
X144880857Y-59062857D01*
X144995142Y-59110476D01*
X145052285Y-59158095D01*
X145109428Y-59253333D01*
X145109428Y-59634285D01*
X145680857Y-58110476D02*
X145680857Y-58681904D01*
X145680857Y-58396190D02*
X144480857Y-58396190D01*
X144652285Y-58491428D01*
X144766571Y-58586666D01*
X144823714Y-58681904D01*
X144880857Y-57253333D02*
X145680857Y-57253333D01*
X144423714Y-57491428D02*
X145280857Y-57729523D01*
X145280857Y-57110476D01*
X147612857Y-59634285D02*
X146412857Y-59634285D01*
X146412857Y-59253333D01*
X146470000Y-59158095D01*
X146527142Y-59110476D01*
X146641428Y-59062857D01*
X146812857Y-59062857D01*
X146927142Y-59110476D01*
X146984285Y-59158095D01*
X147041428Y-59253333D01*
X147041428Y-59634285D01*
X147612857Y-58110476D02*
X147612857Y-58681904D01*
X147612857Y-58396190D02*
X146412857Y-58396190D01*
X146584285Y-58491428D01*
X146698571Y-58586666D01*
X146755714Y-58681904D01*
X146412857Y-57205714D02*
X146412857Y-57681904D01*
X146984285Y-57729523D01*
X146927142Y-57681904D01*
X146870000Y-57586666D01*
X146870000Y-57348571D01*
X146927142Y-57253333D01*
X146984285Y-57205714D01*
X147098571Y-57158095D01*
X147384285Y-57158095D01*
X147498571Y-57205714D01*
X147555714Y-57253333D01*
X147612857Y-57348571D01*
X147612857Y-57586666D01*
X147555714Y-57681904D01*
X147498571Y-57729523D01*
X149544857Y-59634285D02*
X148344857Y-59634285D01*
X148344857Y-59253333D01*
X148402000Y-59158095D01*
X148459142Y-59110476D01*
X148573428Y-59062857D01*
X148744857Y-59062857D01*
X148859142Y-59110476D01*
X148916285Y-59158095D01*
X148973428Y-59253333D01*
X148973428Y-59634285D01*
X149544857Y-58110476D02*
X149544857Y-58681904D01*
X149544857Y-58396190D02*
X148344857Y-58396190D01*
X148516285Y-58491428D01*
X148630571Y-58586666D01*
X148687714Y-58681904D01*
X148344857Y-57253333D02*
X148344857Y-57443809D01*
X148402000Y-57539047D01*
X148459142Y-57586666D01*
X148630571Y-57681904D01*
X148859142Y-57729523D01*
X149316285Y-57729523D01*
X149430571Y-57681904D01*
X149487714Y-57634285D01*
X149544857Y-57539047D01*
X149544857Y-57348571D01*
X149487714Y-57253333D01*
X149430571Y-57205714D01*
X149316285Y-57158095D01*
X149030571Y-57158095D01*
X148916285Y-57205714D01*
X148859142Y-57253333D01*
X148802000Y-57348571D01*
X148802000Y-57539047D01*
X148859142Y-57634285D01*
X148916285Y-57681904D01*
X149030571Y-57729523D01*
X151476857Y-59634285D02*
X150276857Y-59634285D01*
X150276857Y-59253333D01*
X150334000Y-59158095D01*
X150391142Y-59110476D01*
X150505428Y-59062857D01*
X150676857Y-59062857D01*
X150791142Y-59110476D01*
X150848285Y-59158095D01*
X150905428Y-59253333D01*
X150905428Y-59634285D01*
X151476857Y-58110476D02*
X151476857Y-58681904D01*
X151476857Y-58396190D02*
X150276857Y-58396190D01*
X150448285Y-58491428D01*
X150562571Y-58586666D01*
X150619714Y-58681904D01*
X150276857Y-57777142D02*
X150276857Y-57110476D01*
X151476857Y-57539047D01*
X153408857Y-59634285D02*
X152208857Y-59634285D01*
X152208857Y-59253333D01*
X152266000Y-59158095D01*
X152323142Y-59110476D01*
X152437428Y-59062857D01*
X152608857Y-59062857D01*
X152723142Y-59110476D01*
X152780285Y-59158095D01*
X152837428Y-59253333D01*
X152837428Y-59634285D01*
X153408857Y-58110476D02*
X153408857Y-58681904D01*
X153408857Y-58396190D02*
X152208857Y-58396190D01*
X152380285Y-58491428D01*
X152494571Y-58586666D01*
X152551714Y-58681904D01*
X152723142Y-57539047D02*
X152666000Y-57634285D01*
X152608857Y-57681904D01*
X152494571Y-57729523D01*
X152437428Y-57729523D01*
X152323142Y-57681904D01*
X152266000Y-57634285D01*
X152208857Y-57539047D01*
X152208857Y-57348571D01*
X152266000Y-57253333D01*
X152323142Y-57205714D01*
X152437428Y-57158095D01*
X152494571Y-57158095D01*
X152608857Y-57205714D01*
X152666000Y-57253333D01*
X152723142Y-57348571D01*
X152723142Y-57539047D01*
X152780285Y-57634285D01*
X152837428Y-57681904D01*
X152951714Y-57729523D01*
X153180285Y-57729523D01*
X153294571Y-57681904D01*
X153351714Y-57634285D01*
X153408857Y-57539047D01*
X153408857Y-57348571D01*
X153351714Y-57253333D01*
X153294571Y-57205714D01*
X153180285Y-57158095D01*
X152951714Y-57158095D01*
X152837428Y-57205714D01*
X152780285Y-57253333D01*
X152723142Y-57348571D01*
X155340857Y-59634285D02*
X154140857Y-59634285D01*
X154140857Y-59253333D01*
X154198000Y-59158095D01*
X154255142Y-59110476D01*
X154369428Y-59062857D01*
X154540857Y-59062857D01*
X154655142Y-59110476D01*
X154712285Y-59158095D01*
X154769428Y-59253333D01*
X154769428Y-59634285D01*
X155340857Y-58110476D02*
X155340857Y-58681904D01*
X155340857Y-58396190D02*
X154140857Y-58396190D01*
X154312285Y-58491428D01*
X154426571Y-58586666D01*
X154483714Y-58681904D01*
X155340857Y-57634285D02*
X155340857Y-57443809D01*
X155283714Y-57348571D01*
X155226571Y-57300952D01*
X155055142Y-57205714D01*
X154826571Y-57158095D01*
X154369428Y-57158095D01*
X154255142Y-57205714D01*
X154198000Y-57253333D01*
X154140857Y-57348571D01*
X154140857Y-57539047D01*
X154198000Y-57634285D01*
X154255142Y-57681904D01*
X154369428Y-57729523D01*
X154655142Y-57729523D01*
X154769428Y-57681904D01*
X154826571Y-57634285D01*
X154883714Y-57539047D01*
X154883714Y-57348571D01*
X154826571Y-57253333D01*
X154769428Y-57205714D01*
X154655142Y-57158095D01*
X157272857Y-59634285D02*
X156072857Y-59634285D01*
X156072857Y-59253333D01*
X156130000Y-59158095D01*
X156187142Y-59110476D01*
X156301428Y-59062857D01*
X156472857Y-59062857D01*
X156587142Y-59110476D01*
X156644285Y-59158095D01*
X156701428Y-59253333D01*
X156701428Y-59634285D01*
X156187142Y-58681904D02*
X156130000Y-58634285D01*
X156072857Y-58539047D01*
X156072857Y-58300952D01*
X156130000Y-58205714D01*
X156187142Y-58158095D01*
X156301428Y-58110476D01*
X156415714Y-58110476D01*
X156587142Y-58158095D01*
X157272857Y-58729523D01*
X157272857Y-58110476D01*
X156072857Y-57491428D02*
X156072857Y-57396190D01*
X156130000Y-57300952D01*
X156187142Y-57253333D01*
X156301428Y-57205714D01*
X156530000Y-57158095D01*
X156815714Y-57158095D01*
X157044285Y-57205714D01*
X157158571Y-57253333D01*
X157215714Y-57300952D01*
X157272857Y-57396190D01*
X157272857Y-57491428D01*
X157215714Y-57586666D01*
X157158571Y-57634285D01*
X157044285Y-57681904D01*
X156815714Y-57729523D01*
X156530000Y-57729523D01*
X156301428Y-57681904D01*
X156187142Y-57634285D01*
X156130000Y-57586666D01*
X156072857Y-57491428D01*
X159204857Y-59634285D02*
X158004857Y-59634285D01*
X158004857Y-59253333D01*
X158062000Y-59158095D01*
X158119142Y-59110476D01*
X158233428Y-59062857D01*
X158404857Y-59062857D01*
X158519142Y-59110476D01*
X158576285Y-59158095D01*
X158633428Y-59253333D01*
X158633428Y-59634285D01*
X158119142Y-58681904D02*
X158062000Y-58634285D01*
X158004857Y-58539047D01*
X158004857Y-58300952D01*
X158062000Y-58205714D01*
X158119142Y-58158095D01*
X158233428Y-58110476D01*
X158347714Y-58110476D01*
X158519142Y-58158095D01*
X159204857Y-58729523D01*
X159204857Y-58110476D01*
X159204857Y-57158095D02*
X159204857Y-57729523D01*
X159204857Y-57443809D02*
X158004857Y-57443809D01*
X158176285Y-57539047D01*
X158290571Y-57634285D01*
X158347714Y-57729523D01*
X161136857Y-59634285D02*
X159936857Y-59634285D01*
X159936857Y-59253333D01*
X159994000Y-59158095D01*
X160051142Y-59110476D01*
X160165428Y-59062857D01*
X160336857Y-59062857D01*
X160451142Y-59110476D01*
X160508285Y-59158095D01*
X160565428Y-59253333D01*
X160565428Y-59634285D01*
X160051142Y-58681904D02*
X159994000Y-58634285D01*
X159936857Y-58539047D01*
X159936857Y-58300952D01*
X159994000Y-58205714D01*
X160051142Y-58158095D01*
X160165428Y-58110476D01*
X160279714Y-58110476D01*
X160451142Y-58158095D01*
X161136857Y-58729523D01*
X161136857Y-58110476D01*
X160051142Y-57729523D02*
X159994000Y-57681904D01*
X159936857Y-57586666D01*
X159936857Y-57348571D01*
X159994000Y-57253333D01*
X160051142Y-57205714D01*
X160165428Y-57158095D01*
X160279714Y-57158095D01*
X160451142Y-57205714D01*
X161136857Y-57777142D01*
X161136857Y-57158095D01*
X163068857Y-59634285D02*
X161868857Y-59634285D01*
X161868857Y-59253333D01*
X161926000Y-59158095D01*
X161983142Y-59110476D01*
X162097428Y-59062857D01*
X162268857Y-59062857D01*
X162383142Y-59110476D01*
X162440285Y-59158095D01*
X162497428Y-59253333D01*
X162497428Y-59634285D01*
X161983142Y-58681904D02*
X161926000Y-58634285D01*
X161868857Y-58539047D01*
X161868857Y-58300952D01*
X161926000Y-58205714D01*
X161983142Y-58158095D01*
X162097428Y-58110476D01*
X162211714Y-58110476D01*
X162383142Y-58158095D01*
X163068857Y-58729523D01*
X163068857Y-58110476D01*
X161868857Y-57777142D02*
X161868857Y-57158095D01*
X162326000Y-57491428D01*
X162326000Y-57348571D01*
X162383142Y-57253333D01*
X162440285Y-57205714D01*
X162554571Y-57158095D01*
X162840285Y-57158095D01*
X162954571Y-57205714D01*
X163011714Y-57253333D01*
X163068857Y-57348571D01*
X163068857Y-57634285D01*
X163011714Y-57729523D01*
X162954571Y-57777142D01*
D12*
X165997142Y-77918571D02*
X166282857Y-77918571D01*
X166425714Y-77990000D01*
X166568571Y-78132857D01*
X166640000Y-78418571D01*
X166640000Y-78918571D01*
X166568571Y-79204285D01*
X166425714Y-79347142D01*
X166282857Y-79418571D01*
X165997142Y-79418571D01*
X165854285Y-79347142D01*
X165711428Y-79204285D01*
X165640000Y-78918571D01*
X165640000Y-78418571D01*
X165711428Y-78132857D01*
X165854285Y-77990000D01*
X165997142Y-77918571D01*
X167211428Y-79347142D02*
X167425714Y-79418571D01*
X167782857Y-79418571D01*
X167925714Y-79347142D01*
X167997142Y-79275714D01*
X168068571Y-79132857D01*
X168068571Y-78990000D01*
X167997142Y-78847142D01*
X167925714Y-78775714D01*
X167782857Y-78704285D01*
X167497142Y-78632857D01*
X167354285Y-78561428D01*
X167282857Y-78490000D01*
X167211428Y-78347142D01*
X167211428Y-78204285D01*
X167282857Y-78061428D01*
X167354285Y-77990000D01*
X167497142Y-77918571D01*
X167854285Y-77918571D01*
X168068571Y-77990000D01*
X168711428Y-79418571D02*
X168711428Y-77918571D01*
X168711428Y-78632857D02*
X169568571Y-78632857D01*
X169568571Y-79418571D02*
X169568571Y-77918571D01*
D11*
%TO.C,REF\u002A\u002A*%
X138366666Y-75192380D02*
X138033333Y-74716190D01*
X137795238Y-75192380D02*
X137795238Y-74192380D01*
X138176190Y-74192380D01*
X138271428Y-74240000D01*
X138319047Y-74287619D01*
X138366666Y-74382857D01*
X138366666Y-74525714D01*
X138319047Y-74620952D01*
X138271428Y-74668571D01*
X138176190Y-74716190D01*
X137795238Y-74716190D01*
X138795238Y-74668571D02*
X139128571Y-74668571D01*
X139271428Y-75192380D02*
X138795238Y-75192380D01*
X138795238Y-74192380D01*
X139271428Y-74192380D01*
X140033333Y-74668571D02*
X139700000Y-74668571D01*
X139700000Y-75192380D02*
X139700000Y-74192380D01*
X140176190Y-74192380D01*
X140700000Y-74192380D02*
X140700000Y-74430476D01*
X140461904Y-74335238D02*
X140700000Y-74430476D01*
X140938095Y-74335238D01*
X140557142Y-74620952D02*
X140700000Y-74430476D01*
X140842857Y-74620952D01*
X141461904Y-74192380D02*
X141461904Y-74430476D01*
X141223809Y-74335238D02*
X141461904Y-74430476D01*
X141700000Y-74335238D01*
X141319047Y-74620952D02*
X141461904Y-74430476D01*
X141604761Y-74620952D01*
D14*
X117840000Y-62020000D02*
X163900000Y-62020000D01*
X117840000Y-62020000D02*
X117840000Y-59900000D01*
X163900000Y-62020000D02*
X163900000Y-59900000D01*
X116840000Y-62020000D02*
X115780000Y-62020000D01*
X117840000Y-59900000D02*
X163900000Y-59900000D01*
X115780000Y-62020000D02*
X115780000Y-60960000D01*
X154745000Y-82340000D02*
X155770000Y-82340000D01*
X126810000Y-77830000D02*
X127635000Y-77830000D01*
X154745000Y-81800000D02*
X154745000Y-82340000D01*
X155770000Y-83450000D02*
X123630000Y-83450000D01*
X124655000Y-82340000D02*
X124655000Y-81800000D01*
X123630000Y-83450000D02*
X123630000Y-82340000D01*
X155770000Y-82340000D02*
X155770000Y-83450000D01*
X123630000Y-82340000D02*
X124655000Y-82340000D01*
X151765000Y-77830000D02*
X152590000Y-77830000D01*
X127635000Y-77830000D02*
X127635000Y-76030000D01*
%TO.C,G\u002A\u002A\u002A*%
G36*
X167912494Y-65960542D02*
G01*
X168050290Y-65962270D01*
X168172865Y-65965050D01*
X168274696Y-65968904D01*
X168350258Y-65973857D01*
X168394026Y-65979932D01*
X168400328Y-65982073D01*
X168412122Y-65988364D01*
X168422627Y-65996706D01*
X168432564Y-66010262D01*
X168442654Y-66032197D01*
X168453619Y-66065674D01*
X168466180Y-66113857D01*
X168481058Y-66179911D01*
X168498973Y-66266999D01*
X168520648Y-66378285D01*
X168546803Y-66516934D01*
X168578161Y-66686110D01*
X168615441Y-66888976D01*
X168649861Y-67076816D01*
X168681819Y-67243796D01*
X168709318Y-67371380D01*
X168732447Y-67459946D01*
X168751301Y-67509871D01*
X168757966Y-67519407D01*
X168784003Y-67534553D01*
X168841253Y-67561818D01*
X168923727Y-67598727D01*
X169025436Y-67642808D01*
X169140392Y-67691586D01*
X169262606Y-67742588D01*
X169386089Y-67793340D01*
X169504853Y-67841368D01*
X169612909Y-67884199D01*
X169704268Y-67919359D01*
X169772942Y-67944374D01*
X169812941Y-67956771D01*
X169818985Y-67957672D01*
X169841119Y-67946654D01*
X169892387Y-67915333D01*
X169969013Y-67866190D01*
X170067220Y-67801710D01*
X170183229Y-67724375D01*
X170313264Y-67636670D01*
X170453546Y-67541077D01*
X170473839Y-67527171D01*
X170615151Y-67430703D01*
X170746636Y-67341776D01*
X170864534Y-67262870D01*
X170965086Y-67196466D01*
X171044531Y-67145043D01*
X171099110Y-67111082D01*
X171125064Y-67097062D01*
X171126215Y-67096832D01*
X171147763Y-67110688D01*
X171193076Y-67149681D01*
X171258325Y-67209944D01*
X171339680Y-67287614D01*
X171433312Y-67378825D01*
X171535392Y-67479713D01*
X171642089Y-67586413D01*
X171749574Y-67695059D01*
X171854018Y-67801787D01*
X171951591Y-67902732D01*
X172038464Y-67994029D01*
X172110808Y-68071814D01*
X172164792Y-68132220D01*
X172196588Y-68171384D01*
X172203593Y-68184172D01*
X172192573Y-68208808D01*
X172161214Y-68262340D01*
X172112068Y-68340824D01*
X172047687Y-68440317D01*
X171970621Y-68556872D01*
X171883424Y-68686546D01*
X171790881Y-68822145D01*
X171695975Y-68960790D01*
X171608273Y-69090000D01*
X171530385Y-69205848D01*
X171464920Y-69304405D01*
X171414489Y-69381741D01*
X171381701Y-69433928D01*
X171369214Y-69456842D01*
X171374579Y-69483715D01*
X171394072Y-69541303D01*
X171425252Y-69623878D01*
X171465679Y-69725713D01*
X171512913Y-69841082D01*
X171564515Y-69964257D01*
X171618044Y-70089510D01*
X171671060Y-70211114D01*
X171721123Y-70323343D01*
X171765793Y-70420468D01*
X171802630Y-70496762D01*
X171829194Y-70546498D01*
X171840158Y-70562240D01*
X171875596Y-70579863D01*
X171949338Y-70601361D01*
X172059886Y-70626359D01*
X172205739Y-70654484D01*
X172223609Y-70657706D01*
X172485445Y-70705025D01*
X172708996Y-70746319D01*
X172895513Y-70781840D01*
X173046247Y-70811845D01*
X173162448Y-70836588D01*
X173245369Y-70856323D01*
X173296258Y-70871307D01*
X173314754Y-70880048D01*
X173322573Y-70891380D01*
X173328928Y-70913583D01*
X173333963Y-70950377D01*
X173337821Y-71005482D01*
X173340646Y-71082620D01*
X173342582Y-71185509D01*
X173343771Y-71317871D01*
X173344359Y-71483425D01*
X173344491Y-71650417D01*
X173344181Y-71854110D01*
X173343184Y-72020839D01*
X173341400Y-72153669D01*
X173338728Y-72255662D01*
X173335068Y-72329883D01*
X173330321Y-72379394D01*
X173324385Y-72407261D01*
X173319472Y-72415528D01*
X173290680Y-72426649D01*
X173231308Y-72442234D01*
X173150257Y-72460145D01*
X173064271Y-72476825D01*
X172810931Y-72523086D01*
X172594496Y-72563007D01*
X172412429Y-72597098D01*
X172262191Y-72625866D01*
X172141247Y-72649820D01*
X172047059Y-72669469D01*
X171977091Y-72685322D01*
X171928804Y-72697886D01*
X171899662Y-72707670D01*
X171890922Y-72712022D01*
X171870601Y-72736767D01*
X171840041Y-72792493D01*
X171798589Y-72880635D01*
X171745594Y-73002629D01*
X171680403Y-73159908D01*
X171625675Y-73295487D01*
X171569606Y-73436354D01*
X171518713Y-73565700D01*
X171474840Y-73678724D01*
X171439825Y-73770629D01*
X171415513Y-73836615D01*
X171403742Y-73871883D01*
X171402924Y-73875982D01*
X171413686Y-73901726D01*
X171442645Y-73951915D01*
X171484868Y-74018324D01*
X171516980Y-74066132D01*
X171664339Y-74281293D01*
X171790331Y-74465749D01*
X171896408Y-74621686D01*
X171984019Y-74751292D01*
X172054613Y-74856754D01*
X172109642Y-74940259D01*
X172150554Y-75003995D01*
X172178799Y-75050149D01*
X172195828Y-75080908D01*
X172203090Y-75098460D01*
X172203593Y-75101929D01*
X172189791Y-75123590D01*
X172150951Y-75169119D01*
X172090924Y-75234668D01*
X172013558Y-75316392D01*
X171922705Y-75410442D01*
X171822213Y-75512974D01*
X171715934Y-75620141D01*
X171607715Y-75728095D01*
X171501409Y-75832992D01*
X171400864Y-75930984D01*
X171309930Y-76018224D01*
X171232457Y-76090867D01*
X171172295Y-76145065D01*
X171133294Y-76176973D01*
X171120574Y-76183987D01*
X171096994Y-76173000D01*
X171044615Y-76141801D01*
X170967503Y-76093030D01*
X170869725Y-76029330D01*
X170755350Y-75953340D01*
X170628444Y-75867703D01*
X170530248Y-75800628D01*
X170396269Y-75709205D01*
X170271450Y-75625093D01*
X170159941Y-75551007D01*
X170065891Y-75489663D01*
X169993450Y-75443773D01*
X169946768Y-75416055D01*
X169931468Y-75408879D01*
X169897465Y-75415216D01*
X169834452Y-75440082D01*
X169747607Y-75481180D01*
X169642108Y-75536211D01*
X169631375Y-75542042D01*
X169538079Y-75592025D01*
X169456220Y-75634264D01*
X169392661Y-75665339D01*
X169354262Y-75681834D01*
X169347191Y-75683593D01*
X169338566Y-75683115D01*
X169330148Y-75679422D01*
X169320378Y-75669124D01*
X169307695Y-75648832D01*
X169290539Y-75615156D01*
X169267349Y-75564708D01*
X169236567Y-75494097D01*
X169196631Y-75399936D01*
X169145982Y-75278833D01*
X169083059Y-75127400D01*
X169009534Y-74950046D01*
X168884966Y-74649353D01*
X168774980Y-74383540D01*
X168678746Y-74150541D01*
X168595431Y-73948289D01*
X168524205Y-73774720D01*
X168464236Y-73627768D01*
X168414693Y-73505367D01*
X168374744Y-73405451D01*
X168343558Y-73325955D01*
X168320305Y-73264813D01*
X168304152Y-73219960D01*
X168294268Y-73189329D01*
X168289822Y-73170855D01*
X168289982Y-73162473D01*
X168290060Y-73162339D01*
X168310223Y-73144101D01*
X168356300Y-73108589D01*
X168421168Y-73061145D01*
X168488186Y-73013736D01*
X168664949Y-72880704D01*
X168809727Y-72748440D01*
X168929620Y-72609069D01*
X169031730Y-72454713D01*
X169090267Y-72345945D01*
X169174836Y-72142152D01*
X169226141Y-71931826D01*
X169246649Y-71704491D01*
X169247101Y-71680441D01*
X169240332Y-71486280D01*
X169212544Y-71309192D01*
X169160514Y-71135239D01*
X169081018Y-70950485D01*
X169075846Y-70939858D01*
X169026082Y-70842272D01*
X168980428Y-70765211D01*
X168930109Y-70696551D01*
X168866351Y-70624167D01*
X168791892Y-70547493D01*
X168631559Y-70400921D01*
X168472199Y-70286995D01*
X168304463Y-70199682D01*
X168178407Y-70151615D01*
X167930066Y-70087982D01*
X167685390Y-70064148D01*
X167443476Y-70080173D01*
X167203423Y-70136115D01*
X166969472Y-70229546D01*
X166752274Y-70355359D01*
X166562521Y-70510257D01*
X166400479Y-70693937D01*
X166266410Y-70906094D01*
X166160578Y-71146427D01*
X166152575Y-71169058D01*
X166128068Y-71241886D01*
X166110931Y-71302048D01*
X166099864Y-71359569D01*
X166093566Y-71424469D01*
X166090736Y-71506772D01*
X166090073Y-71616500D01*
X166090095Y-71650417D01*
X166090751Y-71769549D01*
X166093260Y-71858882D01*
X166098942Y-71928648D01*
X166109116Y-71989077D01*
X166125101Y-72050398D01*
X166148215Y-72122841D01*
X166152749Y-72136403D01*
X166250199Y-72368349D01*
X166380725Y-72580405D01*
X166545335Y-72773764D01*
X166745034Y-72949618D01*
X166964468Y-73099314D01*
X167010421Y-73133187D01*
X167036943Y-73164336D01*
X167039527Y-73173288D01*
X167038375Y-73182119D01*
X167034286Y-73197290D01*
X167026315Y-73221141D01*
X167013514Y-73256012D01*
X166994936Y-73304243D01*
X166969633Y-73368175D01*
X166936659Y-73450147D01*
X166895067Y-73552499D01*
X166843909Y-73677571D01*
X166782239Y-73827704D01*
X166709110Y-74005237D01*
X166623573Y-74212511D01*
X166524683Y-74451865D01*
X166411493Y-74725640D01*
X166400236Y-74752860D01*
X166326376Y-74930685D01*
X166256417Y-75097643D01*
X166191971Y-75249984D01*
X166134654Y-75383962D01*
X166086079Y-75495827D01*
X166047861Y-75581831D01*
X166021613Y-75638227D01*
X166009039Y-75661179D01*
X165993806Y-75669416D01*
X165968810Y-75667830D01*
X165928616Y-75654336D01*
X165867795Y-75626848D01*
X165780911Y-75583281D01*
X165709297Y-75546089D01*
X165612822Y-75496565D01*
X165527398Y-75454503D01*
X165459922Y-75423160D01*
X165417290Y-75405796D01*
X165407293Y-75403372D01*
X165384417Y-75414354D01*
X165332666Y-75445556D01*
X165256042Y-75494364D01*
X165158549Y-75558164D01*
X165044192Y-75634341D01*
X164916974Y-75720282D01*
X164809544Y-75793680D01*
X164674599Y-75885602D01*
X164548942Y-75969816D01*
X164436642Y-76043699D01*
X164341773Y-76104627D01*
X164268406Y-76149979D01*
X164220611Y-76177130D01*
X164203649Y-76183987D01*
X164180143Y-76169959D01*
X164131304Y-76129404D01*
X164059584Y-76064616D01*
X163967432Y-75977888D01*
X163857299Y-75871514D01*
X163731636Y-75747788D01*
X163641349Y-75657704D01*
X163522369Y-75537733D01*
X163412837Y-75425979D01*
X163315885Y-75325735D01*
X163234643Y-75240298D01*
X163172242Y-75172961D01*
X163131815Y-75127020D01*
X163116491Y-75105770D01*
X163116438Y-75105346D01*
X163127427Y-75083263D01*
X163158656Y-75032266D01*
X163207523Y-74956313D01*
X163271421Y-74859363D01*
X163347747Y-74745372D01*
X163433897Y-74618301D01*
X163510280Y-74506773D01*
X163603105Y-74370914D01*
X163688639Y-74243950D01*
X163764192Y-74130009D01*
X163827075Y-74033221D01*
X163874599Y-73957715D01*
X163904073Y-73907623D01*
X163912849Y-73888628D01*
X163907879Y-73856512D01*
X163888275Y-73790756D01*
X163855159Y-73694519D01*
X163809657Y-73570960D01*
X163752893Y-73423238D01*
X163696387Y-73280434D01*
X163627795Y-73110482D01*
X163571694Y-72974860D01*
X163526613Y-72870377D01*
X163491081Y-72793846D01*
X163463626Y-72742076D01*
X163442777Y-72711880D01*
X163428925Y-72700700D01*
X163397567Y-72692242D01*
X163333027Y-72678026D01*
X163241537Y-72659311D01*
X163129327Y-72637354D01*
X163002628Y-72613415D01*
X162936296Y-72601188D01*
X162715815Y-72560688D01*
X162531657Y-72526370D01*
X162380701Y-72497563D01*
X162259831Y-72473596D01*
X162165928Y-72453798D01*
X162095872Y-72437497D01*
X162046545Y-72424022D01*
X162014830Y-72412702D01*
X161997607Y-72402866D01*
X161993443Y-72398276D01*
X161989454Y-72372561D01*
X161985773Y-72311505D01*
X161982510Y-72219798D01*
X161979775Y-72102131D01*
X161977679Y-71963194D01*
X161976332Y-71807677D01*
X161975846Y-71649239D01*
X161976092Y-71448008D01*
X161977091Y-71283579D01*
X161978949Y-71152726D01*
X161981774Y-71052224D01*
X161985673Y-70978847D01*
X161990755Y-70929371D01*
X161997128Y-70900570D01*
X162001093Y-70892547D01*
X162029508Y-70877772D01*
X162096954Y-70857342D01*
X162202848Y-70831378D01*
X162346606Y-70800002D01*
X162527648Y-70763335D01*
X162745390Y-70721501D01*
X162999249Y-70674619D01*
X163288645Y-70622812D01*
X163312330Y-70618631D01*
X163387492Y-70603191D01*
X163448852Y-70586609D01*
X163484055Y-70572269D01*
X163485483Y-70571233D01*
X163500825Y-70547131D01*
X163528763Y-70491735D01*
X163566808Y-70410829D01*
X163612476Y-70310201D01*
X163663277Y-70195637D01*
X163716726Y-70072924D01*
X163770335Y-69947847D01*
X163821618Y-69826193D01*
X163868087Y-69713748D01*
X163907255Y-69616299D01*
X163936635Y-69539633D01*
X163953741Y-69489535D01*
X163957100Y-69473945D01*
X163945606Y-69446351D01*
X163911819Y-69387807D01*
X163856783Y-69299887D01*
X163781542Y-69184168D01*
X163687137Y-69042223D01*
X163574614Y-68875630D01*
X163445014Y-68685963D01*
X163299382Y-68474799D01*
X163212562Y-68349682D01*
X163168442Y-68283756D01*
X163134991Y-68229065D01*
X163117678Y-68194726D01*
X163116438Y-68189417D01*
X163130152Y-68170342D01*
X163168764Y-68127147D01*
X163228478Y-68063624D01*
X163305501Y-67983570D01*
X163396036Y-67890777D01*
X163496288Y-67789039D01*
X163602464Y-67682151D01*
X163710767Y-67573907D01*
X163817402Y-67468101D01*
X163918575Y-67368527D01*
X164010491Y-67278979D01*
X164089353Y-67203251D01*
X164151368Y-67145137D01*
X164192741Y-67108431D01*
X164209298Y-67096832D01*
X164234734Y-67107688D01*
X164283494Y-67136597D01*
X164346523Y-67178068D01*
X164369288Y-67193839D01*
X164508545Y-67291004D01*
X164652473Y-67390428D01*
X164797159Y-67489497D01*
X164938690Y-67585597D01*
X165073155Y-67676116D01*
X165196642Y-67758439D01*
X165305238Y-67829953D01*
X165395030Y-67888045D01*
X165462107Y-67930100D01*
X165502557Y-67953505D01*
X165512412Y-67957509D01*
X165543693Y-67949916D01*
X165604612Y-67928759D01*
X165689426Y-67896478D01*
X165792395Y-67855511D01*
X165907779Y-67808294D01*
X166029836Y-67757266D01*
X166152826Y-67704864D01*
X166271007Y-67653527D01*
X166378638Y-67605692D01*
X166469979Y-67563797D01*
X166539289Y-67530280D01*
X166580827Y-67507579D01*
X166590186Y-67499849D01*
X166596853Y-67473254D01*
X166609896Y-67411891D01*
X166628410Y-67320355D01*
X166651490Y-67203244D01*
X166678230Y-67065152D01*
X166707725Y-66910675D01*
X166739069Y-66744409D01*
X166740076Y-66739035D01*
X166771660Y-66572947D01*
X166801862Y-66418964D01*
X166829729Y-66281600D01*
X166854302Y-66165375D01*
X166874628Y-66074804D01*
X166889748Y-66014403D01*
X166898709Y-65988690D01*
X166898928Y-65988444D01*
X166925112Y-65981763D01*
X166985795Y-65975922D01*
X167075452Y-65970945D01*
X167188559Y-65966856D01*
X167319592Y-65963678D01*
X167463026Y-65961434D01*
X167613338Y-65960148D01*
X167765001Y-65959843D01*
X167912494Y-65960542D01*
G37*
%TD*%
M02*
