%TF.GenerationSoftware,KiCad,Pcbnew,(6.0.1)*%
%TF.CreationDate,2022-02-07T14:27:38+00:00*%
%TF.ProjectId,24p_fpc_keyboard,3234705f-6670-4635-9f6b-6579626f6172,rev?*%
%TF.SameCoordinates,Original*%
%TF.FileFunction,Copper,L1,Top*%
%TF.FilePolarity,Positive*%
%FSLAX46Y46*%
G04 Gerber Fmt 4.6, Leading zero omitted, Abs format (unit mm)*
G04 Created by KiCad (PCBNEW (6.0.1)) date 2022-02-07 14:27:38*
%MOMM*%
%LPD*%
G01*
G04 APERTURE LIST*
%TA.AperFunction,Profile*%
%ADD10C,0.200000*%
%TD*%
%TA.AperFunction,ComponentPad*%
%ADD11R,1.350000X1.350000*%
%TD*%
%TA.AperFunction,ComponentPad*%
%ADD12O,1.350000X1.350000*%
%TD*%
%TA.AperFunction,SMDPad,CuDef*%
%ADD13R,0.610000X2.000000*%
%TD*%
%TA.AperFunction,SMDPad,CuDef*%
%ADD14R,2.680000X3.600000*%
%TD*%
%TA.AperFunction,Conductor*%
%ADD15C,0.500000*%
%TD*%
G04 APERTURE END LIST*
D10*
X175260000Y-48260000D02*
X106680000Y-48260000D01*
X106680000Y-48260000D02*
X106680000Y-93980000D01*
X106680000Y-93980000D02*
X175260000Y-93980000D01*
X175260000Y-93980000D02*
X175260000Y-48260000D01*
D11*
%TO.P,REF\u002A\u002A,1*%
%TO.N,N/C*%
X116840000Y-60960000D03*
D12*
%TO.P,REF\u002A\u002A,2*%
X118840000Y-60960000D03*
%TO.P,REF\u002A\u002A,3*%
X120840000Y-60960000D03*
%TO.P,REF\u002A\u002A,4*%
X122840000Y-60960000D03*
%TO.P,REF\u002A\u002A,5*%
X124840000Y-60960000D03*
%TO.P,REF\u002A\u002A,6*%
X126840000Y-60960000D03*
%TO.P,REF\u002A\u002A,7*%
X128840000Y-60960000D03*
%TO.P,REF\u002A\u002A,8*%
X130840000Y-60960000D03*
%TO.P,REF\u002A\u002A,9*%
X132840000Y-60960000D03*
%TO.P,REF\u002A\u002A,10*%
X134840000Y-60960000D03*
%TO.P,REF\u002A\u002A,11*%
X136840000Y-60960000D03*
%TO.P,REF\u002A\u002A,12*%
X138840000Y-60960000D03*
%TO.P,REF\u002A\u002A,13*%
X140840000Y-60960000D03*
%TO.P,REF\u002A\u002A,14*%
X142840000Y-60960000D03*
%TO.P,REF\u002A\u002A,15*%
X144840000Y-60960000D03*
%TO.P,REF\u002A\u002A,16*%
X146840000Y-60960000D03*
%TO.P,REF\u002A\u002A,17*%
X148840000Y-60960000D03*
%TO.P,REF\u002A\u002A,18*%
X150840000Y-60960000D03*
%TO.P,REF\u002A\u002A,19*%
X152840000Y-60960000D03*
%TO.P,REF\u002A\u002A,20*%
X154840000Y-60960000D03*
%TO.P,REF\u002A\u002A,21*%
X156840000Y-60960000D03*
%TO.P,REF\u002A\u002A,22*%
X158840000Y-60960000D03*
%TO.P,REF\u002A\u002A,23*%
X160840000Y-60960000D03*
%TO.P,REF\u002A\u002A,24*%
X162840000Y-60960000D03*
%TD*%
D13*
%TO.P,REF\u002A\u002A,1*%
%TO.N,N/C*%
X128200000Y-76940000D03*
%TO.P,REF\u002A\u002A,2*%
X129200000Y-76940000D03*
%TO.P,REF\u002A\u002A,3*%
X130200000Y-76940000D03*
%TO.P,REF\u002A\u002A,4*%
X131200000Y-76940000D03*
%TO.P,REF\u002A\u002A,5*%
X132200000Y-76940000D03*
%TO.P,REF\u002A\u002A,6*%
X133200000Y-76940000D03*
%TO.P,REF\u002A\u002A,7*%
X134200000Y-76940000D03*
%TO.P,REF\u002A\u002A,8*%
X135200000Y-76940000D03*
%TO.P,REF\u002A\u002A,9*%
X136200000Y-76940000D03*
%TO.P,REF\u002A\u002A,10*%
X137200000Y-76940000D03*
%TO.P,REF\u002A\u002A,11*%
X138200000Y-76940000D03*
%TO.P,REF\u002A\u002A,12*%
X139200000Y-76940000D03*
%TO.P,REF\u002A\u002A,13*%
X140200000Y-76940000D03*
%TO.P,REF\u002A\u002A,14*%
X141200000Y-76940000D03*
%TO.P,REF\u002A\u002A,15*%
X142200000Y-76940000D03*
%TO.P,REF\u002A\u002A,16*%
X143200000Y-76940000D03*
%TO.P,REF\u002A\u002A,17*%
X144200000Y-76940000D03*
%TO.P,REF\u002A\u002A,18*%
X145200000Y-76940000D03*
%TO.P,REF\u002A\u002A,19*%
X146200000Y-76940000D03*
%TO.P,REF\u002A\u002A,20*%
X147200000Y-76940000D03*
%TO.P,REF\u002A\u002A,21*%
X148200000Y-76940000D03*
%TO.P,REF\u002A\u002A,22*%
X149200000Y-76940000D03*
%TO.P,REF\u002A\u002A,23*%
X150200000Y-76940000D03*
%TO.P,REF\u002A\u002A,24*%
X151200000Y-76940000D03*
D14*
%TO.P,REF\u002A\u002A,MP*%
X125210000Y-79740000D03*
X154190000Y-79740000D03*
%TD*%
D15*
%TO.N,*%
X144780000Y-71120000D02*
X144780000Y-64880000D01*
X152400000Y-69260000D02*
X160700000Y-60960000D01*
X140200000Y-76940000D02*
X140199999Y-71619999D01*
X141200000Y-71350000D02*
X140970000Y-71120000D01*
X137160000Y-71120000D02*
X137160000Y-61420000D01*
X148200000Y-72780000D02*
X149860000Y-71120000D01*
X139200000Y-76940000D02*
X139200000Y-71890000D01*
X145200000Y-71970000D02*
X146050000Y-71120000D01*
X151200000Y-76940000D02*
X151200000Y-73590000D01*
X128200000Y-74860000D02*
X128200000Y-76940000D01*
X147200000Y-76940000D02*
X147200000Y-72510000D01*
X130200000Y-76860000D02*
X130200000Y-74320000D01*
X150200000Y-76940000D02*
X150200000Y-73320000D01*
X151130000Y-71120000D02*
X151130000Y-68530000D01*
X146050000Y-71120000D02*
X146050000Y-65610000D01*
X129540000Y-65800000D02*
X124700000Y-60960000D01*
X147200000Y-72510000D02*
X148590000Y-71120000D01*
X151130000Y-68530000D02*
X158700000Y-60960000D01*
X137200000Y-76940000D02*
X137200000Y-72430000D01*
X139700000Y-71120000D02*
X139700000Y-61960000D01*
X130200000Y-74320000D02*
X127000000Y-71120000D01*
X130810000Y-65070000D02*
X126700000Y-60960000D01*
X134620000Y-71120000D02*
X134620000Y-62880000D01*
X134620000Y-62880000D02*
X132700000Y-60960000D01*
X132080000Y-64340000D02*
X128700000Y-60960000D01*
X149860000Y-71120000D02*
X149860000Y-67800000D01*
X140970000Y-71120000D02*
X140970000Y-62690000D01*
X136200000Y-76940000D02*
X136200000Y-72700000D01*
X138430000Y-61230000D02*
X138700000Y-60960000D01*
X142240000Y-71120000D02*
X142240000Y-63420000D01*
X127000000Y-71120000D02*
X127000000Y-67260000D01*
X131200000Y-74050000D02*
X128270000Y-71120000D01*
X142240000Y-63420000D02*
X144700000Y-60960000D01*
X138200000Y-76940000D02*
X138200000Y-72160000D01*
X116700000Y-63360000D02*
X128200000Y-74860000D01*
X133350000Y-71120000D02*
X133350000Y-63610000D01*
X147320000Y-71120000D02*
X147320000Y-66340000D01*
X143200000Y-76940000D02*
X143200000Y-71430000D01*
X143510000Y-64150000D02*
X146700000Y-60960000D01*
X132080000Y-71120000D02*
X132080000Y-64340000D01*
X116700000Y-60960000D02*
X116700000Y-63360000D01*
X153670000Y-71120000D02*
X153670000Y-69990000D01*
X132200000Y-76940000D02*
X132200000Y-73780000D01*
X137200000Y-72430000D02*
X135890000Y-71120000D01*
X148590000Y-71120000D02*
X148590000Y-67070000D01*
X133350000Y-63610000D02*
X130700000Y-60960000D01*
X150200000Y-73320000D02*
X152400000Y-71120000D01*
X129200000Y-76540000D02*
X129200000Y-74590000D01*
X132200000Y-73780000D02*
X129540000Y-71120000D01*
X134200000Y-76940000D02*
X134200000Y-73240000D01*
X133200000Y-73510000D02*
X130810000Y-71120000D01*
X140970000Y-62690000D02*
X142700000Y-60960000D01*
X143200000Y-71430000D02*
X143510000Y-71120000D01*
X140199999Y-71619999D02*
X139700000Y-71120000D01*
X135200000Y-72970000D02*
X133350000Y-71120000D01*
X128270000Y-71120000D02*
X128270000Y-66530000D01*
X127000000Y-67260000D02*
X120700000Y-60960000D01*
X144780000Y-64880000D02*
X148700000Y-60960000D01*
X138430000Y-71120000D02*
X138430000Y-61230000D01*
X139700000Y-61960000D02*
X140700000Y-60960000D01*
X151200000Y-73590000D02*
X153670000Y-71120000D01*
X149200000Y-73050000D02*
X151130000Y-71120000D01*
X118700000Y-63360000D02*
X118700000Y-60960000D01*
X146050000Y-65610000D02*
X150700000Y-60960000D01*
X145200000Y-76940000D02*
X145200000Y-71970000D01*
X131200000Y-76940000D02*
X131200000Y-74050000D01*
X129540000Y-71120000D02*
X129540000Y-65800000D01*
X130810000Y-71120000D02*
X130810000Y-65070000D01*
X128270000Y-66530000D02*
X122700000Y-60960000D01*
X142200000Y-76940000D02*
X142200000Y-71160000D01*
X130200000Y-76940000D02*
X130200000Y-76860000D01*
X149200000Y-76940000D02*
X149200000Y-73050000D01*
X146200000Y-76940000D02*
X146200000Y-72240000D01*
X135200000Y-76940000D02*
X135200000Y-72970000D01*
X148200000Y-76940000D02*
X148200000Y-72780000D01*
X147320000Y-66340000D02*
X152700000Y-60960000D01*
X144200000Y-76940000D02*
X144200000Y-71700000D01*
X138200000Y-72160000D02*
X137160000Y-71120000D01*
X142200000Y-71160000D02*
X142240000Y-71120000D01*
X135890000Y-71120000D02*
X135890000Y-62150000D01*
X133200000Y-76940000D02*
X133200000Y-73510000D01*
X153670000Y-69990000D02*
X162700000Y-60960000D01*
X135890000Y-62150000D02*
X134700000Y-60960000D01*
X136200000Y-72700000D02*
X134620000Y-71120000D01*
X149860000Y-67800000D02*
X156700000Y-60960000D01*
X146200000Y-72240000D02*
X147320000Y-71120000D01*
X152400000Y-71120000D02*
X152400000Y-69260000D01*
X125730000Y-70390000D02*
X118700000Y-63360000D01*
X129200000Y-74590000D02*
X125730000Y-71120000D01*
X129200000Y-76940000D02*
X129200000Y-76540000D01*
X144200000Y-71700000D02*
X144780000Y-71120000D01*
X141200000Y-76940000D02*
X141200000Y-71350000D01*
X148590000Y-67070000D02*
X154700000Y-60960000D01*
X139200000Y-71890000D02*
X138430000Y-71120000D01*
X137160000Y-61420000D02*
X136700000Y-60960000D01*
X143510000Y-71120000D02*
X143510000Y-64150000D01*
X134200000Y-73240000D02*
X132080000Y-71120000D01*
X125730000Y-71120000D02*
X125730000Y-70390000D01*
%TD*%
M02*
