M48
; DRILL file {KiCad (6.0.1)} date Mon Feb  7 11:42:58 2022
; FORMAT={-:-/ absolute / metric / decimal}
; #@! TF.CreationDate,2022-02-07T11:42:58+00:00
; #@! TF.GenerationSoftware,Kicad,Pcbnew,(6.0.1)
; #@! TF.FileFunction,Plated,1,2,PTH
FMAT,2
METRIC
; #@! TA.AperFunction,Plated,PTH,ComponentDrill
T1C0.800
%
G90
G05
T1
X116.84Y-60.96
X118.84Y-60.96
X120.84Y-60.96
X122.84Y-60.96
X124.84Y-60.96
X126.84Y-60.96
X128.84Y-60.96
X130.84Y-60.96
X132.84Y-60.96
X134.84Y-60.96
X136.84Y-60.96
X138.84Y-60.96
X140.84Y-60.96
X142.84Y-60.96
X144.84Y-60.96
X146.84Y-60.96
X148.84Y-60.96
X150.84Y-60.96
X152.84Y-60.96
X154.84Y-60.96
X156.84Y-60.96
X158.84Y-60.96
X160.84Y-60.96
X162.84Y-60.96
T0
M30
